Coordinates
version=1
nRows=5
nColumns=42
inDegrees=yes

Units are S.I. units (second, meters, Newtons, ...)
If the header above contains a line with 'inDegrees', this indicates whether rotational values are in degrees (yes) or radians (no).

endheader
time	pelvis_tilt	pelvis_list	pelvis_rotation	pelvis_tx	pelvis_ty	pelvis_tz	hip_flexion_r	hip_adduction_r	hip_rotation_r	knee_angle_r	knee_adduction_r	knee_angle_r_beta	ankle_angle_r	subtalar_angle_r	mtp_angle_r	hip_flexion_l	hip_adduction_l	hip_rotation_l	knee_angle_l	knee_adduction_l	knee_angle_l_beta	ankle_angle_l	subtalar_angle_l	mtp_angle_l	lumbar_extension	lumbar_bending	lumbar_rotation	arm_flex_r	arm_add_r	arm_rot_r	elbow_flex_r	pro_sup_r	wrist_flex_r	wrist_dev_r	arm_flex_l	arm_add_l	arm_rot_l	elbow_flex_l	pro_sup_l	wrist_flex_l	wrist_dev_l
      2.90000000	      8.04782089	      6.79295781	     20.47198237	      0.67092667	      0.90598534	      0.50813037	     -5.39586856	     -0.42685509	    -24.84764285	     20.92626708	      1.77829872	      0.36523226	     22.23718803	      3.43491331	     -7.53471532	     23.10200054	     -8.49005467	      2.85547707	     26.03464983	      6.26742792	      0.45439036	      6.50719942	      6.27183283	     -7.53471532	    -25.87905309	     -7.71057139	     -5.22305718	     -7.04299341	    -27.07501299	    -47.98971388	     63.68046209	     90.00000001	      0.00000000	      0.00000000	      4.67111455	    -20.38142367	     11.44890562	     85.69160887	     90.00000001	      0.00000000	      0.00000000
      2.91000000	      8.44932518	      6.90574967	     19.98345827	      0.67355969	      0.90611445	      0.50821047	     -6.03857959	     -0.45945381	    -24.73180759	     20.88637158	      1.83800935	      0.36453595	     22.35551661	      3.78681436	     -7.53389647	     23.51751387	     -8.22711740	      2.76308582	     26.22960018	      6.29126228	      0.45779288	      6.53362033	      6.46020736	     -7.53389647	    -26.10207085	     -7.79299118	     -4.85016165	     -6.95529224	    -27.33274906	    -46.97601926	     64.48254708	     90.00000001	      0.00000000	      0.00000000	      4.28379268	    -20.22179550	     11.17150522	     85.89232394	     90.00000001	      0.00000000	      0.00000000
      2.92000000	      8.67169196	      6.95001910	     19.46802253	      0.67634245	      0.90591905	      0.50827123	     -6.35091069	     -0.49322403	    -24.57057567	     21.09822684	      1.78607036	      0.36823352	     22.27624434	      3.86470856	     -7.53349281	     24.07857009	     -7.95045974	      2.87475249	     26.40235841	      6.35475229	      0.46080808	      6.47233563	      6.55342849	     -7.53349281	    -26.03790905	     -7.90276251	     -4.35066885	     -6.63971899	    -27.44185392	    -46.65324825	     64.80402106	     90.00000001	      0.00000000	      0.00000000	      3.95455292	    -20.11317510	     11.19288930	     85.83015726	     90.00000001	      0.00000000	      0.00000000
      2.93000000	      9.12853776	      7.08111143	     18.98315724	      0.67917548	      0.90595588	      0.50823281	     -7.08396446	     -0.52260749	    -24.40833996	     21.06066430	      1.83063886	      0.36757793	     22.81558999	      4.13801956	     -7.53274196	     24.45068948	     -7.68405601	      2.83942694	     26.83801272	      6.43255971	      0.46841169	      6.52476055	      6.54398998	     -7.53274196	    -26.30251513	     -7.93855619	     -4.09797290	     -6.70547947	    -27.62025428	    -45.44624497	     66.18421831	     90.00000001	      0.00000000	      0.00000000	      3.37304049	    -20.01854469	     10.84055754	     86.14663899	     90.00000001	      0.00000000	      0.00000000
      2.94000000	      9.33889107	      7.09864730	     18.42334508	      0.68189348	      0.90569666	      0.50832476	     -7.33458246	     -0.55884011	    -24.19739409	     21.31822854	      1.76638202	      0.37207328	     22.69609197	      4.22232203	     -7.53234109	     24.96782483	     -7.41302481	      3.02203099	     27.03410993	      6.48176309	      0.47183423	      6.45078223	      6.63964105	     -7.53234109	    -26.24219340	     -8.02792809	     -3.57052116	     -6.39029444	    -27.65373009	    -45.09827282	     66.48644281	     90.00000001	      0.00000000	      0.00000000	      3.00946466	    -19.86444983	     10.89732854	     86.06389905	     90.00000001	      0.00000000	      0.00000000
